<svg xmlns="http://www.w3.org/2000/svg" viewBox="0 0 640 220" width="640" height="220" font-family="sans-serif">
<rect width="640" height="220" fill="#f8f9fa"/>
<line x1="50" y1="190.0" x2="620" y2="190.0" stroke="#dcdcdc" stroke-width="1"/>
<text x="42" y="194.0" text-anchor="end" font-size="11" fill="#666">0%</text>
<line x1="50" y1="107.0" x2="620" y2="107.0" stroke="#dcdcdc" stroke-width="1"/>
<text x="42" y="111.0" text-anchor="end" font-size="11" fill="#666">50%</text>
<line x1="50" y1="24.0" x2="620" y2="24.0" stroke="#dcdcdc" stroke-width="1"/>
<text x="42" y="28.0" text-anchor="end" font-size="11" fill="#666">100%</text>
<polyline points="50.0,24.0 69.7,24.0 89.3,24.0 109.0,24.0 128.6,24.0 148.3,24.0 167.9,24.0 187.6,24.0 207.2,24.0 226.9,24.0 246.6,24.0 266.2,24.0 285.9,24.0 305.5,24.0 325.2,24.0 344.8,24.0 364.5,24.0 384.1,24.0 403.8,24.0 423.4,24.0 443.1,24.0 462.8,24.0 482.4,24.0 502.1,24.0 521.7,24.0 541.4,24.0 561.0,24.0 580.7,24.0 600.3,24.0 620.0,24.0" fill="none" stroke="#94a3b8" stroke-width="2"/>
<circle cx="50.0" cy="24.0" r="4" fill="#2f7d32"><title>2026-09-06 5bb7a29 (mock): 100%</title></circle>
<circle cx="69.7" cy="24.0" r="4" fill="#2f7d32"><title>2026-09-06 d82c92b (mock): 100%</title></circle>
<circle cx="89.3" cy="24.0" r="4" fill="#2f7d32"><title>2026-09-06 43b851a (mock): 100%</title></circle>
<circle cx="109.0" cy="24.0" r="4" fill="#2f7d32"><title>2026-09-06 d29c8d7 (mock): 100%</title></circle>
<circle cx="128.6" cy="24.0" r="4" fill="#2f7d32"><title>2026-09-07 bb9aabc (mock): 100%</title></circle>
<circle cx="148.3" cy="24.0" r="4" fill="#2f7d32"><title>2026-09-07 00ae367 (mock): 100%</title></circle>
<circle cx="167.9" cy="24.0" r="4" fill="#2f7d32"><title>2026-09-07 d0ed6ff (mock): 100%</title></circle>
<circle cx="187.6" cy="24.0" r="4" fill="#2f7d32"><title>2026-09-07 0ecab72 (mock): 100%</title></circle>
<circle cx="207.2" cy="24.0" r="4" fill="#2f7d32"><title>2026-09-07 dee5bd9 (mock): 100%</title></circle>
<circle cx="226.9" cy="24.0" r="4" fill="#2f7d32"><title>2026-09-07 40123ec (mock): 100%</title></circle>
<circle cx="246.6" cy="24.0" r="4" fill="#2f7d32"><title>2026-09-20 a71fa08 (mock): 100%</title></circle>
<circle cx="266.2" cy="24.0" r="4" fill="#2f7d32"><title>2026-09-21 eb91611 (mock): 100%</title></circle>
<circle cx="285.9" cy="24.0" r="4" fill="#2f7d32"><title>2026-09-21 fcb99c0 (mock): 100%</title></circle>
<circle cx="305.5" cy="24.0" r="4" fill="#2f7d32"><title>2026-09-21 e5d1efe (mock): 100%</title></circle>
<circle cx="325.2" cy="24.0" r="4" fill="#2f7d32"><title>2026-09-21 9b89131 (mock): 100%</title></circle>
<circle cx="344.8" cy="24.0" r="4" fill="#2f7d32"><title>2026-09-21 3283570 (mock): 100%</title></circle>
<circle cx="364.5" cy="24.0" r="4" fill="#2f7d32"><title>2026-09-24 b3837db (mock): 100%</title></circle>
<circle cx="384.1" cy="24.0" r="4" fill="#2f7d32"><title>2026-09-27 bce7a02 (mock): 100%</title></circle>
<circle cx="403.8" cy="24.0" r="4" fill="#2f7d32"><title>2026-09-29 ac635e9 (mock): 100%</title></circle>
<circle cx="423.4" cy="24.0" r="4" fill="#2f7d32"><title>2026-09-29 b4ef39f (mock): 100%</title></circle>
<circle cx="443.1" cy="24.0" r="4" fill="#2f7d32"><title>2026-09-29 2a45b7c (mock): 100%</title></circle>
<circle cx="462.8" cy="24.0" r="4" fill="#2f7d32"><title>2026-09-30 a400f3f (mock): 100%</title></circle>
<circle cx="482.4" cy="24.0" r="4" fill="#2f7d32"><title>2026-09-30 cbb5ca8 (mock): 100%</title></circle>
<circle cx="502.1" cy="24.0" r="4" fill="#2f7d32"><title>2026-10-01 ab901ed (mock): 100%</title></circle>
<circle cx="521.7" cy="24.0" r="4" fill="#2f7d32"><title>2026-10-01 6ea6a6d (mock): 100%</title></circle>
<circle cx="541.4" cy="24.0" r="4" fill="#2f7d32"><title>2026-10-01 8656d7f (mock): 100%</title></circle>
<circle cx="561.0" cy="24.0" r="4" fill="#2f7d32"><title>2026-10-01 a8a34fd (mock): 100%</title></circle>
<circle cx="580.7" cy="24.0" r="4" fill="#2f7d32"><title>2026-10-02 edec1dc (mock): 100%</title></circle>
<circle cx="600.3" cy="24.0" r="4" fill="#2f7d32"><title>2026-10-02 1f4bf15 (mock): 100%</title></circle>
<circle cx="620.0" cy="24.0" r="4" fill="#2f7d32"><title>2026-10-02 53b2d42 (mock): 100%</title></circle>
<text x="50" y="212" font-size="11" fill="#666">2026-09-06 · 5bb7a29</text>
<text x="620" y="212" text-anchor="end" font-size="11" fill="#666">2026-10-02 · 53b2d42 · 100%</text>
</svg>