<svg xmlns="http://www.w3.org/2000/svg" viewBox="0 0 640 220" width="640" height="220" font-family="sans-serif">
<rect width="640" height="220" fill="#f8f9fa"/>
<line x1="50" y1="190.0" x2="620" y2="190.0" stroke="#dcdcdc" stroke-width="1"/>
<text x="42" y="194.0" text-anchor="end" font-size="11" fill="#666">0%</text>
<line x1="50" y1="107.0" x2="620" y2="107.0" stroke="#dcdcdc" stroke-width="1"/>
<text x="42" y="111.0" text-anchor="end" font-size="11" fill="#666">50%</text>
<line x1="50" y1="24.0" x2="620" y2="24.0" stroke="#dcdcdc" stroke-width="1"/>
<text x="42" y="28.0" text-anchor="end" font-size="11" fill="#666">100%</text>
<polyline points="50.0,24.0 74.8,24.0 99.6,24.0 124.3,24.0 149.1,24.0 173.9,24.0 198.7,24.0 223.5,24.0 248.3,24.0 273.0,24.0 297.8,24.0 322.6,24.0 347.4,24.0 372.2,24.0 397.0,24.0 421.7,24.0 446.5,24.0 471.3,24.0 496.1,24.0 520.9,24.0 545.7,24.0 570.4,24.0 595.2,24.0 620.0,24.0" fill="none" stroke="#94a3b8" stroke-width="2"/>
<circle cx="50.0" cy="24.0" r="4" fill="#2f7d32"><title>2026-09-06 5bb7a29 (mock): 100%</title></circle>
<circle cx="74.8" cy="24.0" r="4" fill="#2f7d32"><title>2026-09-06 d82c92b (mock): 100%</title></circle>
<circle cx="99.6" cy="24.0" r="4" fill="#2f7d32"><title>2026-09-06 43b851a (mock): 100%</title></circle>
<circle cx="124.3" cy="24.0" r="4" fill="#2f7d32"><title>2026-09-06 d29c8d7 (mock): 100%</title></circle>
<circle cx="149.1" cy="24.0" r="4" fill="#2f7d32"><title>2026-09-07 bb9aabc (mock): 100%</title></circle>
<circle cx="173.9" cy="24.0" r="4" fill="#2f7d32"><title>2026-09-07 00ae367 (mock): 100%</title></circle>
<circle cx="198.7" cy="24.0" r="4" fill="#2f7d32"><title>2026-09-07 d0ed6ff (mock): 100%</title></circle>
<circle cx="223.5" cy="24.0" r="4" fill="#2f7d32"><title>2026-09-07 0ecab72 (mock): 100%</title></circle>
<circle cx="248.3" cy="24.0" r="4" fill="#2f7d32"><title>2026-09-07 dee5bd9 (mock): 100%</title></circle>
<circle cx="273.0" cy="24.0" r="4" fill="#2f7d32"><title>2026-09-07 40123ec (mock): 100%</title></circle>
<circle cx="297.8" cy="24.0" r="4" fill="#2f7d32"><title>2026-09-20 a71fa08 (mock): 100%</title></circle>
<circle cx="322.6" cy="24.0" r="4" fill="#2f7d32"><title>2026-09-21 eb91611 (mock): 100%</title></circle>
<circle cx="347.4" cy="24.0" r="4" fill="#2f7d32"><title>2026-09-21 fcb99c0 (mock): 100%</title></circle>
<circle cx="372.2" cy="24.0" r="4" fill="#2f7d32"><title>2026-09-21 e5d1efe (mock): 100%</title></circle>
<circle cx="397.0" cy="24.0" r="4" fill="#2f7d32"><title>2026-09-21 9b89131 (mock): 100%</title></circle>
<circle cx="421.7" cy="24.0" r="4" fill="#2f7d32"><title>2026-09-21 3283570 (mock): 100%</title></circle>
<circle cx="446.5" cy="24.0" r="4" fill="#2f7d32"><title>2026-09-24 b3837db (mock): 100%</title></circle>
<circle cx="471.3" cy="24.0" r="4" fill="#2f7d32"><title>2026-09-27 bce7a02 (mock): 100%</title></circle>
<circle cx="496.1" cy="24.0" r="4" fill="#2f7d32"><title>2026-09-29 ac635e9 (mock): 100%</title></circle>
<circle cx="520.9" cy="24.0" r="4" fill="#2f7d32"><title>2026-09-29 b4ef39f (mock): 100%</title></circle>
<circle cx="545.7" cy="24.0" r="4" fill="#2f7d32"><title>2026-09-29 2a45b7c (mock): 100%</title></circle>
<circle cx="570.4" cy="24.0" r="4" fill="#2f7d32"><title>2026-09-30 a400f3f (mock): 100%</title></circle>
<circle cx="595.2" cy="24.0" r="4" fill="#2f7d32"><title>2026-09-30 cbb5ca8 (mock): 100%</title></circle>
<circle cx="620.0" cy="24.0" r="4" fill="#2f7d32"><title>2026-10-01 ab901ed (mock): 100%</title></circle>
<text x="50" y="212" font-size="11" fill="#666">2026-09-06 · 5bb7a29</text>
<text x="620" y="212" text-anchor="end" font-size="11" fill="#666">2026-10-01 · ab901ed · 100%</text>
</svg>