<svg xmlns="http://www.w3.org/2000/svg" viewBox="0 0 640 220" width="640" height="220" font-family="sans-serif">
<rect width="640" height="220" fill="#f8f9fa"/>
<line x1="50" y1="190.0" x2="620" y2="190.0" stroke="#dcdcdc" stroke-width="1"/>
<text x="42" y="194.0" text-anchor="end" font-size="11" fill="#666">0%</text>
<line x1="50" y1="107.0" x2="620" y2="107.0" stroke="#dcdcdc" stroke-width="1"/>
<text x="42" y="111.0" text-anchor="end" font-size="11" fill="#666">50%</text>
<line x1="50" y1="24.0" x2="620" y2="24.0" stroke="#dcdcdc" stroke-width="1"/>
<text x="42" y="28.0" text-anchor="end" font-size="11" fill="#666">100%</text>
<polyline points="50.0,24.0 72.8,24.0 95.6,24.0 118.4,24.0 141.2,24.0 164.0,24.0 186.8,24.0 209.6,24.0 232.4,24.0 255.2,24.0 278.0,24.0 300.8,24.0 323.6,24.0 346.4,24.0 369.2,24.0 392.0,24.0 414.8,24.0 437.6,24.0 460.4,24.0 483.2,24.0 506.0,24.0 528.8,24.0 551.6,24.0 574.4,24.0 597.2,24.0 620.0,24.0" fill="none" stroke="#94a3b8" stroke-width="2"/>
<circle cx="50.0" cy="24.0" r="4" fill="#2f7d32"><title>2026-09-06 5bb7a29 (mock): 100%</title></circle>
<circle cx="72.8" cy="24.0" r="4" fill="#2f7d32"><title>2026-09-06 d82c92b (mock): 100%</title></circle>
<circle cx="95.6" cy="24.0" r="4" fill="#2f7d32"><title>2026-09-06 43b851a (mock): 100%</title></circle>
<circle cx="118.4" cy="24.0" r="4" fill="#2f7d32"><title>2026-09-06 d29c8d7 (mock): 100%</title></circle>
<circle cx="141.2" cy="24.0" r="4" fill="#2f7d32"><title>2026-09-07 bb9aabc (mock): 100%</title></circle>
<circle cx="164.0" cy="24.0" r="4" fill="#2f7d32"><title>2026-09-07 00ae367 (mock): 100%</title></circle>
<circle cx="186.8" cy="24.0" r="4" fill="#2f7d32"><title>2026-09-07 d0ed6ff (mock): 100%</title></circle>
<circle cx="209.6" cy="24.0" r="4" fill="#2f7d32"><title>2026-09-07 0ecab72 (mock): 100%</title></circle>
<circle cx="232.4" cy="24.0" r="4" fill="#2f7d32"><title>2026-09-07 dee5bd9 (mock): 100%</title></circle>
<circle cx="255.2" cy="24.0" r="4" fill="#2f7d32"><title>2026-09-07 40123ec (mock): 100%</title></circle>
<circle cx="278.0" cy="24.0" r="4" fill="#2f7d32"><title>2026-09-20 a71fa08 (mock): 100%</title></circle>
<circle cx="300.8" cy="24.0" r="4" fill="#2f7d32"><title>2026-09-21 eb91611 (mock): 100%</title></circle>
<circle cx="323.6" cy="24.0" r="4" fill="#2f7d32"><title>2026-09-21 fcb99c0 (mock): 100%</title></circle>
<circle cx="346.4" cy="24.0" r="4" fill="#2f7d32"><title>2026-09-21 e5d1efe (mock): 100%</title></circle>
<circle cx="369.2" cy="24.0" r="4" fill="#2f7d32"><title>2026-09-21 9b89131 (mock): 100%</title></circle>
<circle cx="392.0" cy="24.0" r="4" fill="#2f7d32"><title>2026-09-21 3283570 (mock): 100%</title></circle>
<circle cx="414.8" cy="24.0" r="4" fill="#2f7d32"><title>2026-09-24 b3837db (mock): 100%</title></circle>
<circle cx="437.6" cy="24.0" r="4" fill="#2f7d32"><title>2026-09-27 bce7a02 (mock): 100%</title></circle>
<circle cx="460.4" cy="24.0" r="4" fill="#2f7d32"><title>2026-09-29 ac635e9 (mock): 100%</title></circle>
<circle cx="483.2" cy="24.0" r="4" fill="#2f7d32"><title>2026-09-29 b4ef39f (mock): 100%</title></circle>
<circle cx="506.0" cy="24.0" r="4" fill="#2f7d32"><title>2026-09-29 2a45b7c (mock): 100%</title></circle>
<circle cx="528.8" cy="24.0" r="4" fill="#2f7d32"><title>2026-09-30 a400f3f (mock): 100%</title></circle>
<circle cx="551.6" cy="24.0" r="4" fill="#2f7d32"><title>2026-09-30 cbb5ca8 (mock): 100%</title></circle>
<circle cx="574.4" cy="24.0" r="4" fill="#2f7d32"><title>2026-10-01 ab901ed (mock): 100%</title></circle>
<circle cx="597.2" cy="24.0" r="4" fill="#2f7d32"><title>2026-10-01 6ea6a6d (mock): 100%</title></circle>
<circle cx="620.0" cy="24.0" r="4" fill="#2f7d32"><title>2026-10-01 8656d7f (mock): 100%</title></circle>
<text x="50" y="212" font-size="11" fill="#666">2026-09-06 · 5bb7a29</text>
<text x="620" y="212" text-anchor="end" font-size="11" fill="#666">2026-10-01 · 8656d7f · 100%</text>
</svg>